<svg xmlns="http://www.w3.org/2000/svg" viewBox="0 0 64 64" role="img" aria-label="Sleeper logo">
  <defs>
    <linearGradient id="sleeperGradient" x1="0" y1="0" x2="1" y2="1">
      <stop offset="0%" stop-color="#00E0FF" />
      <stop offset="100%" stop-color="#3B82F6" />
    </linearGradient>
  </defs>
  <rect width="64" height="64" rx="14" fill="#0F172A" />
  <path
    fill="url(#sleeperGradient)"
    d="M32 12c-8.836 0-16 6.164-16 13.77 0 5.281 3.463 9.861 8.559 12.184l-2.559 9.046c-.167.592.489 1.045 1.013.705l8.454-5.494c.86.12 1.743.181 2.533.181 8.836 0 16-6.164 16-13.77S40.836 12 32 12zm-7.2 17.4a2.4 2.4 0 1 1 2.4-2.4 2.4 2.4 0 0 1-2.4 2.4zm14.4 0a2.4 2.4 0 1 1 2.4-2.4 2.4 2.4 0 0 1-2.4 2.4z"
  />
</svg>
